<?xml version="1.0" encoding="UTF-8"?>
<svg version="1.1" xmlns="http://www.w3.org/2000/svg" width="680" height="680">
<path d="M0 0 C224.4 0 448.8 0 680 0 C680 224.4 680 448.8 680 680 C455.6 680 231.2 680 0 680 C0 455.6 0 231.2 0 0 Z " fill="#FEFEFE" transform="translate(0,0)"/>
<path d="M0 0 C8.41675203 1.59533209 14.51329406 10.50014129 19.4921875 16.92578125 C22.69570029 20.96913388 25.59028091 23.16657539 30.36328125 25.17578125 C32 26 32 26 33 28 C33.61368619 34.19123911 31.95086648 37.9291918 29.0625 43.1875 C28.32072685 44.5749617 27.58232458 45.96423196 26.84765625 47.35546875 C26.51773682 47.96028076 26.18781738 48.56509277 25.84790039 49.18823242 C24.95201369 51.10253568 24.44725426 52.93865479 24 55 C25.32837891 55.14695312 25.32837891 55.14695312 26.68359375 55.296875 C33.43138632 56.7275024 40.96117877 62.48027765 45 68 C45.91674468 74.21349171 44.67925571 78.89297341 41 84 C36.04446117 89.20400596 28.81545204 91.3379211 22 93 C20.35 93 18.7 93 17 93 C17 101.91 17 110.82 17 120 C21.29 120 25.58 120 30 120 C32.43974368 120.12974895 34.87869541 120.28603916 37.3125 120.5 C38.40175781 120.5928125 39.49101563 120.685625 40.61328125 120.78125 C41.79470703 120.88953125 41.79470703 120.88953125 43 121 C40.13444797 116.01643125 36.58308983 112.65133345 32.21875 108.9296875 C30.0447194 107.03889328 28.01367622 105.05944159 26 103 C28.31 103.66 30.62 104.32 33 105 C31.68 103.35 30.36 101.7 29 100 C36.75 100.875 36.75 100.875 39 102 C39 101.34 39 100.68 39 100 C44.23229247 100.56060276 48.15401698 102.29991925 52.75 104.6875 C53.45592285 105.04908203 54.1618457 105.41066406 54.88916016 105.78320312 C82.20239097 119.90534946 82.20239097 119.90534946 87 133 C87.96712616 139.43667158 87.93693318 145.56974734 84 151 C79.25205363 155.38271973 75.72778936 157.27923308 69.25 157.125 C68.26515625 157.10695313 67.2803125 157.08890625 66.265625 157.0703125 C65.51796875 157.04710937 64.7703125 157.02390625 64 157 C64 156.01 64 155.02 64 154 C53.44 153.67 42.88 153.34 32 153 C32 154.32 32 155.64 32 157 C38.6 157 45.2 157 52 157 C52 157.33 52 157.66 52 158 C48.00043584 158.33870183 44.00028974 158.66998725 40 159 C38.31197266 159.14308594 38.31197266 159.14308594 36.58984375 159.2890625 C30.70349155 159.77098607 24.9059119 160.11580219 19 160 C19.03029297 160.55083252 19.06058594 161.10166504 19.09179688 161.66918945 C19.92583682 177.72606227 20.2393104 193.81493888 20.39697266 209.89120483 C20.42379123 212.15521316 20.46122831 214.41912292 20.50976562 216.68276978 C20.57671458 219.93084024 20.60312699 223.17711359 20.62109375 226.42578125 C20.64888412 227.38355469 20.6766745 228.34132813 20.70530701 229.328125 C20.68021646 237.89606018 17.69472678 244.39795277 14 252 C23.26079702 251.51551347 32.52146501 251.02864015 41.78199196 250.53901863 C46.08572459 250.31154098 50.38949185 250.0847754 54.69335938 249.85986328 C59.68371539 249.59895685 64.67393843 249.33561753 69.6640625 249.0703125 C70.48525826 249.02673866 71.30645401 248.98316483 72.15253448 248.93827057 C80.68309085 248.48334009 89.21056492 248.00432075 97.73339844 247.42089844 C98.41824751 247.3740711 99.10309658 247.32724377 99.80869865 247.27899742 C102.96711118 247.06129185 106.12485 246.83657408 109.28213501 246.60305786 C116.53580107 246.08556329 123.72834571 245.89726077 131 246 C131 246.66 131 247.32 131 248 C129.98421875 248.20753906 128.9684375 248.41507813 127.921875 248.62890625 C118.32132397 250.72595494 107.78266528 253.29997004 101.1875 261.16015625 C98.01353504 263.82968749 94.72622478 263.70883806 90.75 263.9375 C84.19841368 264.51604929 78.88713841 265.19211249 74 270 C70.86672495 273.81059803 70.86672495 273.81059803 69.8359375 278.48046875 C69 281 69 281 65.91015625 282.80078125 C64.63562808 283.32465079 63.35249102 283.82795431 62.0625 284.3125 C61.41603516 284.57611328 60.76957031 284.83972656 60.10351562 285.11132812 C55.37938312 287 55.37938312 287 53 287 C53.33 290.63 53.66 294.26 54 298 C51.4678555 299.26607225 49.69091425 299.14074487 46.85571289 299.16113281 C45.77184296 299.1706044 44.68797302 299.18007599 43.57125854 299.18983459 C41.78995041 299.19641335 41.78995041 299.19641335 39.97265625 299.203125 C38.73742218 299.21004868 37.50218811 299.21697235 36.22952271 299.22410583 C32.17381344 299.24157576 28.1182387 299.24803959 24.0625 299.25 C23.02981176 299.25110464 23.02981176 299.25110464 21.97626114 299.2522316 C-49.12845489 299.31441501 -49.12845489 299.31441501 -82.9453125 291.47094727 C-84.72491798 291.06305053 -86.51613134 290.70643974 -88.30859375 290.359375 C-100.96048909 287.89533546 -112.97185446 283.56146377 -125 279 C-125 278.34 -125 277.68 -125 277 C-125.72058594 276.87625 -126.44117188 276.7525 -127.18359375 276.625 C-129.98826192 276.00260484 -132.41783525 275.11182197 -135.0625 274 C-140.18254043 271.85415871 -145.40146229 269.77813667 -151 271 C-156.91529326 273.81525649 -162.27798067 277.33836161 -167.375 281.4375 C-169.81718817 283.31185429 -170.91177227 283.98161922 -174 284.625 C-182.92054396 282.76655334 -189.31671844 276.8627171 -196 271 C-196.59554688 270.53980469 -197.19109375 270.07960938 -197.8046875 269.60546875 C-200.99192899 265.32456597 -199.26976579 257.46910631 -198.71875 252.42578125 C-197.58233155 246.16455266 -194.85884226 240.79982946 -190.296875 236.33203125 C-186.16038197 233.93314669 -181.41172457 234.1310822 -176.7265625 233.72265625 C-172.44475495 232.89232669 -170.23323773 231.93071257 -167 229 C-165.8971668 226.24881451 -165.19860644 224.03711366 -164.625 221.1875 C-164.37943359 220.15786133 -164.37943359 220.15786133 -164.12890625 219.10742188 C-162.89238001 213.61579063 -161.85618074 208.23997938 -164.5 203.0625 C-168.80728985 197.78606994 -173.46542185 192.99033201 -179 189 C-178.67 187.35 -178.34 185.7 -178 184 C-176.68 184 -175.36 184 -174 184 C-174 183.01 -174 182.02 -174 181 C-173.01 180.67 -172.02 180.34 -171 180 C-171 179.01 -171 178.02 -171 177 C-169.68 177 -168.36 177 -167 177 C-167.33 175.68 -167.66 174.36 -168 173 C-167.37351562 172.81566406 -166.74703125 172.63132812 -166.1015625 172.44140625 C-161.30841446 170.84300846 -161.30841446 170.84300846 -158.02734375 167.2578125 C-157.48295326 164.83321621 -157.22665215 162.47625929 -157 160 C-156.72357035 158.00334267 -156.44690157 156.00671119 -156.16381836 154.01098633 C-155.74592884 151.01087164 -155.37229522 148.00608584 -155 145 C-155.91523438 145.5775 -156.83046875 146.155 -157.7734375 146.75 C-158.97381205 147.5002341 -160.17434092 148.25022133 -161.375 149 C-161.97828125 149.3815625 -162.5815625 149.763125 -163.203125 150.15625 C-167.7734375 153 -167.7734375 153 -170 153 C-170 153.66 -170 154.32 -170 155 C-176.87661346 157.61966227 -182.27238366 159.11174522 -189.5625 156.9375 C-194.7908957 153.99058606 -199.93285687 148.73500094 -201.625 142.8125 C-202.11043335 139.17174991 -202.06224895 135.67268828 -202 132 C-199.36 132.33 -196.72 132.66 -194 133 C-194 132.34 -194 131.68 -194 131 C-196.64 130.34 -199.28 129.68 -202 129 C-202 128.01 -202 127.02 -202 126 C-200.515 125.505 -200.515 125.505 -199 125 C-199.33 123.68 -199.66 122.36 -200 121 C-199.01902344 120.90203125 -198.03804688 120.8040625 -197.02734375 120.703125 C-187.34529641 119.66027547 -178.35608692 117.76915739 -169 115 C-167.33130859 114.5359375 -167.33130859 114.5359375 -165.62890625 114.0625 C-158.72620942 112.07372781 -152.34402882 109.48849391 -145.875 106.3671875 C-139.12290398 103.15627227 -133.86248738 101.67523564 -126.4765625 103.6875 C-119.42115066 106.29257514 -112.6954835 109.93507953 -108.5 116.375 C-106.71047901 120.69967572 -106.67567027 123.37830131 -107 128 C-105.35 128.33 -103.7 128.66 -102 129 C-102.49422815 133.53717647 -104.10629391 135.69686449 -107.1875 139 C-107.99574219 139.87011719 -108.80398438 140.74023438 -109.63671875 141.63671875 C-111.52751145 143.52751145 -113.38448705 145.19112146 -115.5 146.8125 C-118.2049765 148.79460764 -118.2049765 148.79460764 -118.875 151.8125 C-118.91625 152.534375 -118.9575 153.25625 -119 154 C-119.66 154 -120.32 154 -121 154 C-121.33 152.02 -121.66 150.04 -122 148 C-125.40189169 150.69592195 -126.4937211 154.34617128 -127.91796875 158.29296875 C-128.18007645 158.99899734 -128.44218414 159.70502594 -128.7122345 160.43244934 C-129.54510258 162.68135026 -130.36641876 164.93427238 -131.1875 167.1875 C-131.75119581 168.71577434 -132.31564043 170.2437727 -132.88085938 171.77148438 C-134.26260595 175.51117971 -135.63400966 179.25452221 -137 183 C-136.39671875 183.28488281 -135.7934375 183.56976563 -135.171875 183.86328125 C-131.72576134 185.66691268 -129.57358127 187.46721675 -128 191 C-126.10137776 204.89077467 -129.98594019 214.83217534 -138 225.8828125 C-140.15580833 228.16493773 -141.03488579 228.4202628 -144 229 C-146.75128802 231.94323835 -148.72054918 234.16164755 -150 238 C-150.66 238 -151.32 238 -152 238 C-152 237.01 -152 236.02 -152 235 C-154.64752004 237.57784846 -156.94432065 239.91648098 -159 243 C-158.15405273 242.97643433 -158.15405273 242.97643433 -157.29101562 242.95239258 C-154.69411565 242.88938426 -152.09737725 242.85080402 -149.5 242.8125 C-148.613125 242.78736328 -147.72625 242.76222656 -146.8125 242.73632812 C-141.70454641 242.6799904 -137.91597515 243.18804275 -133.23486328 245.18237305 C-128.25136947 247.00558921 -122.90345734 247.62738976 -117.6875 248.5 C-116.00624023 248.79970703 -116.00624023 248.79970703 -114.29101562 249.10546875 C-90.85565056 253.10693946 -67.56248824 254.48310099 -43.8125 254.6875 C-41.0930625 254.71929199 -38.37368282 254.75511385 -35.65429688 254.79101562 C-29.10296537 254.87452126 -22.5516166 254.94341377 -16 255 C-16.24758057 254.33057373 -16.49516113 253.66114746 -16.75024414 252.97143555 C-17.87719929 249.88460464 -18.969867 246.78663769 -20.0625 243.6875 C-20.45244141 242.63498047 -20.84238281 241.58246094 -21.24414062 240.49804688 C-23.79304306 233.16713278 -24.21575347 227.62540934 -23 220 C-22.94214945 217.93820622 -22.91071518 215.8749313 -22.9375 213.8125 C-22.94652344 212.89082031 -22.95554687 211.96914063 -22.96484375 211.01953125 C-22.97644531 210.35308594 -22.98804688 209.68664062 -23 209 C-22.01 208.67 -21.02 208.34 -20 208 C-20 193.15 -20 178.3 -20 163 C-27.7188782 164.31279973 -27.7188782 164.31279973 -35.43652344 165.6328125 C-36.40106445 165.79523438 -37.36560547 165.95765625 -38.359375 166.125 C-39.34389648 166.29257812 -40.32841797 166.46015625 -41.34277344 166.6328125 C-44 167 -44 167 -48 167 C-47.96519531 168.17691406 -47.93039062 169.35382813 -47.89453125 170.56640625 C-47.70178886 180.24326644 -48.09934872 189.64871749 -49.375 199.25 C-49.50108643 200.20076416 -49.62717285 201.15152832 -49.75708008 202.13110352 C-52.03928255 218.2232648 -56.47607431 230.54429562 -68.99609375 241.1875 C-71.98164878 243.88788506 -74.45643177 246.88412891 -77 250 C-77.61875 249.66484375 -78.2375 249.3296875 -78.875 248.984375 C-80.91750439 247.81038726 -80.91750439 247.81038726 -83 248.25 C-85.0599833 249.02249374 -87.03220371 250.01610186 -89 251 C-89 248.03 -89 245.06 -89 242 C-89.66 242 -90.32 242 -91 242 C-91.2475 242.61359375 -91.495 243.2271875 -91.75 243.859375 C-93.23062253 246.39494109 -94.36567537 247.02968785 -97 248.25 C-97.70125 248.58515625 -98.4025 248.9203125 -99.125 249.265625 C-101 250 -101 250 -103 250 C-102.39301257 245.87248551 -100.96189209 242.6678852 -99 239 C-99.68707031 239.42152344 -100.37414062 239.84304688 -101.08203125 240.27734375 C-101.98308594 240.82519531 -102.88414062 241.37304688 -103.8125 241.9375 C-104.70582031 242.48277344 -105.59914063 243.02804687 -106.51953125 243.58984375 C-110.57376181 245.89468978 -113.59512209 246.11188041 -118.1875 246.0625 C-119.27417969 246.05347656 -120.36085938 246.04445313 -121.48046875 246.03515625 C-122.31191406 246.02355469 -123.14335937 246.01195312 -124 246 C-123.42293476 242.67489787 -122.47045255 241.13482755 -120.0078125 238.85546875 C-119.390271 238.26878418 -118.77272949 237.68209961 -118.13647461 237.07763672 C-117.14079468 236.14201904 -117.14079468 236.14201904 -116.125 235.1875 C-100.85343682 220.33999524 -89.91042004 203.53710831 -87 182 C-87.66 182.33 -88.32 182.66 -89 183 C-95.07080781 183.47614179 -99.86003034 182.63667309 -104.6328125 178.62890625 C-111.05034898 171.90500497 -114.74444874 160.79996652 -114.66796875 151.5 C-113.20656808 146.03043024 -108.14321555 142.56578465 -104 139 C-103.3090625 138.38253906 -102.618125 137.76507813 -101.90625 137.12890625 C-99.95518424 135.39773519 -97.98067495 133.69718852 -96 132 C-85.06530984 122.73542504 -85.06530984 122.73542504 -79 110 C-79.80824219 110.02320313 -80.61648438 110.04640625 -81.44921875 110.0703125 C-83.05216797 110.09738281 -83.05216797 110.09738281 -84.6875 110.125 C-85.74324219 110.14820313 -86.79898438 110.17140625 -87.88671875 110.1953125 C-96.59327875 109.64910422 -102.02027437 103.14775849 -107.7578125 97.16796875 C-110.79862044 93.45818306 -111.96873266 90.03838349 -111.6640625 85.33203125 C-109.67970484 78.36343406 -103.53166029 74.03200477 -97.5 70.625 C-95.68151677 69.71954164 -93.84861418 68.84223615 -92 68 C-91.22785156 67.64808594 -90.45570313 67.29617187 -89.66015625 66.93359375 C-85.99443003 65.41132756 -83.77036653 64.79845462 -80 66 C-80.33 65.34 -80.66 64.68 -81 64 C-81.29026547 61.91928512 -81.55778078 59.83536486 -81.8125 57.75 C-83.41848203 47.36237154 -89.12945905 42.51307831 -97 36 C-97.66 35.67 -98.32 35.34 -99 35 C-94.73804674 25.68833909 -83.98154397 18.49077198 -75 14 C-66.33731475 13.23858242 -58.12388789 18.34253674 -51.5625 23.66796875 C-43.45472562 30.71340372 -37.72690392 37.82783771 -36.7421875 48.8984375 C-36.50644247 55.26355318 -36.7088082 59.17240922 -41 64 C-39.700625 63.855625 -38.40125 63.71125 -37.0625 63.5625 C-33.76953125 63.19661458 -30.4765625 62.83072917 -27.18359375 62.46484375 C-26.3939624 62.37710693 -25.60433105 62.28937012 -24.79077148 62.19897461 C-24.19981689 62.13331299 -23.6088623 62.06765137 -23 62 C-23.176521 61.34104736 -23.35304199 60.68209473 -23.53491211 60.00317383 C-31.4069573 30.35551398 -31.4069573 30.35551398 -29 20 C-28.01 20.33 -27.02 20.66 -26 21 C-25.87625 21.969375 -25.7525 22.93875 -25.625 23.9375 C-25.41875 24.948125 -25.2125 25.95875 -25 27 C-24.34 27.33 -23.68 27.66 -23 28 C-23.93606578 22.32854266 -24.8803503 17.90230666 -28 13 C-27.67 12.01 -27.34 11.02 -27 10 C-24.69 10 -22.38 10 -20 10 C-20 7.69 -20 5.38 -20 3 C-13.73 2.67 -7.46 2.34 -1 2 C-0.67 1.34 -0.34 0.68 0 0 Z " fill="#030303" transform="translate(543,162)"/>
<path d="M0 0 C4.40507225 1.00737665 7.79292592 3.68177121 11.38671875 6.31542969 C12.20954346 6.90275879 13.03236816 7.49008789 13.88012695 8.09521484 C16.3403189 9.87176721 18.77280241 11.68059831 21.19921875 13.50292969 C21.905625 14.02516113 22.61203125 14.54739258 23.33984375 15.08544922 C25.21415243 16.48702995 27.05553874 17.92062968 28.88671875 19.37792969 C29.43287842 19.79276611 29.97903809 20.20760254 30.54174805 20.63500977 C33.3800802 23.00098807 34.1667398 24.26679173 34.67578125 27.96777344 C32.61430674 43.25985895 19.14869518 54.24013399 7.8828125 63.49511719 C4.8851726 65.96697514 2.45414948 68.35004735 0.19921875 71.50292969 C7.57905326 71.6708147 14.64865866 71.25909182 21.94921875 70.19042969 C22.90223877 70.05507812 23.85525879 69.91972656 24.8371582 69.78027344 C40.82512908 67.45220285 56.26561606 63.86328452 71.44921875 58.31542969 C74.28113957 57.47872581 76.27280544 57.1178753 79.19921875 57.50292969 C81.13671875 58.81542969 81.13671875 58.81542969 83.19921875 60.50292969 C84.11960937 60.95667969 85.04 61.41042969 85.98828125 61.87792969 C95.8676768 66.87772111 106.30771317 74.74406133 110.19921875 85.50292969 C110.97430262 90.15343289 110.36305866 92.74306846 107.69921875 96.50292969 C106.53299041 97.83664643 105.36627912 99.16994095 104.19921875 100.50292969 C103.74603271 101.13279785 103.29284668 101.76266602 102.82592773 102.41162109 C99.65619097 106.08620617 96.72332731 107.64892131 91.92431641 108.04882812 C87.49594582 108.2130199 83.0782752 108.1195827 78.65042114 107.97305298 C75.72235699 107.87663353 72.7962675 107.82270948 69.86694336 107.78100586 C66.01645678 107.72555099 62.16652274 107.65835615 58.31640625 107.58154297 C41.77398197 107.28722202 25.29746845 108.65668202 8.82421875 110.00292969 C7.61247482 110.10149765 7.61247482 110.10149765 6.37625122 110.20205688 C4.0798109 110.39116445 1.78398485 110.58634804 -0.51171875 110.78417969 C-1.20422226 110.84147751 -1.89672577 110.89877533 -2.61021423 110.95780945 C-5.52438081 111.21601862 -8.01113855 111.57304879 -10.80078125 112.50292969 C-12.22039417 112.65939759 -13.64481661 112.77430175 -15.0703125 112.86230469 C-49.38135715 115.26088182 -83.55364991 122.36853738 -116.48828125 132.19042969 C-117.49930908 132.48796143 -118.51033691 132.78549316 -119.55200195 133.09204102 C-120.48359131 133.37587646 -121.41518066 133.65971191 -122.375 133.95214844 C-123.20604248 134.20311279 -124.03708496 134.45407715 -124.89331055 134.71264648 C-126.99118539 135.33778805 -126.99118539 135.33778805 -127.80078125 137.50292969 C-121.46596706 137.97025205 -117.03179505 137.71912352 -111.58984375 134.28027344 C-109.25863066 133.26736644 -108.1424573 133.61872836 -105.80078125 134.50292969 C-104.05078125 135.94042969 -104.05078125 135.94042969 -102.80078125 137.50292969 C-102.80078125 138.16292969 -102.80078125 138.82292969 -102.80078125 139.50292969 C-79.18217412 135.29315763 -79.18217412 135.29315763 -58.80078125 124.50292969 C-46.86158467 123.58452995 -36.14554296 127.09645751 -26.80078125 134.50292969 C-22.87865898 138.25607164 -20.10495918 142.06950621 -19.42578125 147.50292969 C-19.80078125 150.50292969 -19.80078125 150.50292969 -21.77734375 152.11230469 C-24.81773225 155.70442392 -24.47222309 159.18227289 -24.55078125 163.75292969 C-24.58042969 164.59339844 -24.61007813 165.43386719 -24.640625 166.29980469 C-24.71109761 168.36700119 -24.75823064 170.43497002 -24.80078125 172.50292969 C-24.14078125 172.50292969 -23.48078125 172.50292969 -22.80078125 172.50292969 C-22.40890625 171.24480469 -22.01703125 169.98667969 -21.61328125 168.69042969 C-19.76194031 163.10080417 -17.31532599 157.82024761 -14.80078125 152.50292969 C-14.24205322 152.47787354 -13.6833252 152.45281738 -13.10766602 152.42700195 C-10.52605697 152.30949864 -7.94467889 152.18748589 -5.36328125 152.06542969 C-4.48478516 152.02611328 -3.60628906 151.98679687 -2.70117188 151.94628906 C2.96869137 151.674303 8.56370828 151.18515323 14.19921875 150.50292969 C14.54984375 151.32792969 14.90046875 152.15292969 15.26171875 153.00292969 C18.0967951 158.65970938 22.48390374 163.41492537 27.69921875 166.94042969 C30.19921875 169.50292969 30.19921875 169.50292969 30.32421875 173.31542969 C30.00098472 175.05501646 29.61514417 176.78314819 29.19921875 178.50292969 C28.97637207 179.44845703 28.97637207 179.44845703 28.74902344 180.41308594 C27.63202332 185.1278399 26.42849179 189.81632624 25.19921875 194.50292969 C24.86341686 195.83564345 24.52851506 197.16859359 24.19921875 198.50292969 C23.20921875 198.50292969 22.21921875 198.50292969 21.19921875 198.50292969 C21.19921875 197.51292969 21.19921875 196.52292969 21.19921875 195.50292969 C20.53921875 195.50292969 19.87921875 195.50292969 19.19921875 195.50292969 C19.21082031 196.21835937 19.22242188 196.93378906 19.234375 197.67089844 C19.28324045 203.06704041 19.17699944 208.37621465 18.69921875 213.75292969 C17.92954442 222.85707744 17.1973139 232.54625908 19.19921875 241.50292969 C19.91658817 246.38399994 20.2805322 250.61431409 17.765625 255.00683594 C12.04543141 261.80891724 3.99107887 267.59165575 -4.80078125 269.50292969 C-7.49220767 269.64044783 -10.10197318 269.59599203 -12.80078125 269.50292969 C-13.44988279 267.92093338 -14.09492819 266.33727245 -14.73828125 264.75292969 C-15.27775391 263.43035156 -15.27775391 263.43035156 -15.828125 262.08105469 C-18.06203064 256.15985901 -17.76809395 251.02790024 -17.54296875 244.71777344 C-17.48794815 241.52460612 -17.48794815 241.52460612 -19.30859375 239.69433594 C-19.80101562 239.30117188 -20.2934375 238.90800781 -20.80078125 238.50292969 C-20.80078125 237.84292969 -20.80078125 237.18292969 -20.80078125 236.50292969 C-18.82078125 236.83292969 -16.84078125 237.16292969 -14.80078125 237.50292969 C-14.89520219 231.74094928 -15.00147883 225.97934605 -15.11816406 220.21777344 C-15.15615686 218.2627542 -15.19105814 216.30767211 -15.22265625 214.35253906 C-14.93418657 195.95136436 -14.93418657 195.95136436 -19.80078125 178.50292969 C-20.79078125 178.17292969 -21.78078125 177.84292969 -22.80078125 177.50292969 C-22.80078125 176.51292969 -22.80078125 175.52292969 -22.80078125 174.50292969 C-23.46078125 174.50292969 -24.12078125 174.50292969 -24.80078125 174.50292969 C-24.78917969 175.20417969 -24.77757812 175.90542969 -24.765625 176.62792969 C-24.75660156 177.57667969 -24.74757812 178.52542969 -24.73828125 179.50292969 C-24.72667969 180.43105469 -24.71507812 181.35917969 -24.703125 182.31542969 C-24.80078125 185.50292969 -24.80078125 185.50292969 -25.29801941 189.06811523 C-25.92105842 193.93300791 -25.94546565 198.74851885 -25.94262695 203.64746094 C-25.94610138 204.63064301 -25.94957581 205.61382507 -25.95315552 206.62680054 C-25.96047367 208.74927208 -25.9658399 210.87175108 -25.96944618 212.99423218 C-25.97665291 216.35762636 -25.99234887 219.72087812 -26.01078796 223.08422852 C-26.06307388 232.64272163 -26.1112508 242.2011324 -26.12670898 251.75976562 C-26.13680081 257.61763226 -26.16614778 263.47513321 -26.20802879 269.33285522 C-26.22031751 271.5590844 -26.22546396 273.78536523 -26.22323036 276.0116272 C-26.22087222 279.12761415 -26.24308094 282.24255335 -26.27075195 285.35839844 C-26.26415054 286.2708432 -26.25754913 287.18328796 -26.25074768 288.12338257 C-26.36390865 295.90799836 -28.92248477 302.11378922 -34.12890625 307.99511719 C-39.99290248 313.28367454 -47.19848866 317.40574553 -54.80078125 319.50292969 C-59.89270452 319.00711645 -61.61817864 317.09722778 -64.76171875 313.29589844 C-69.54390258 306.74558917 -74.40054644 299.69137454 -77.81274414 292.31542969 C-78.63507725 290.30746695 -78.63507725 290.30746695 -80.74609375 289.89355469 C-82.76432292 289.76334635 -84.78255208 289.63313802 -86.80078125 289.50292969 C-86.80078125 288.51292969 -86.80078125 287.52292969 -86.80078125 286.50292969 C-85.81078125 286.40496094 -84.82078125 286.30699219 -83.80078125 286.20605469 C-76.48006794 285.40643748 -70.10705102 284.58345719 -63.80078125 280.50292969 C-59.18336042 273.57679844 -59.54567294 266.62714046 -59.67578125 258.56542969 C-59.68480469 257.50001953 -59.69382812 256.43460938 -59.703125 255.33691406 C-59.72654711 252.72534935 -59.75934673 250.11426032 -59.80078125 247.50292969 C-68.90657936 249.07186764 -77.04240693 252.81241665 -85.45239258 256.48583984 C-87.36028918 257.31581663 -89.27347181 258.13252676 -91.1875 258.94824219 C-92.31373779 259.43824707 -93.43997559 259.92825195 -94.6003418 260.43310547 C-97.87966376 261.52929807 -100.37037449 261.71467919 -103.80078125 261.50292969 C-103.66446289 263.28739502 -103.66446289 263.28739502 -103.52539062 265.10791016 C-103.18615007 269.56189292 -102.85188255 274.01623784 -102.51904297 278.47070312 C-102.37487171 280.39105133 -102.22938884 282.31130157 -102.08251953 284.23144531 C-101.87048982 287.00658242 -101.66332919 289.78204879 -101.45703125 292.55761719 C-101.39140991 293.40282928 -101.32578857 294.24804138 -101.25817871 295.11886597 C-100.83310458 300.92286696 -100.72773814 306.68431206 -100.80078125 312.50292969 C-108.84160376 317.39734339 -117.41327771 321.17927427 -126.80078125 322.50292969 C-128.03828125 322.67888672 -128.03828125 322.67888672 -129.30078125 322.85839844 C-131.80078125 322.50292969 -131.80078125 322.50292969 -133.90625 320.47558594 C-136.26117753 317.18398929 -138.57711132 313.88463741 -140.80078125 310.50292969 C-141.26339355 309.80731934 -141.72600586 309.11170898 -142.20263672 308.39501953 C-143.64230235 306.19959054 -145.03991179 303.98264949 -146.42578125 301.75292969 C-146.87590576 301.0569165 -147.32603027 300.36090332 -147.78979492 299.64379883 C-150.88018285 294.49274584 -151.13608683 291.28218875 -149.80078125 285.50292969 C-149.57721132 284.18646064 -149.3611835 282.86869067 -149.15234375 281.54980469 C-148.97723267 280.52113281 -148.97723267 280.52113281 -148.79858398 279.47167969 C-145.22757109 258.21865731 -143.49845662 236.82660205 -142.53491211 215.31738281 C-142.19825224 208.17807834 -141.60050561 201.45086957 -139.80078125 194.50292969 C-139.28677413 191.17643078 -139.01548205 187.86146366 -138.80078125 184.50292969 C-138.74664062 183.70757812 -138.6925 182.91222656 -138.63671875 182.09277344 C-138.21032793 169.55300718 -141.19893387 156.71159818 -143.80078125 144.50292969 C-140.7126843 142.73830286 -139.56765989 142.50292969 -135.80078125 142.50292969 C-135.80078125 140.85292969 -135.80078125 139.20292969 -135.80078125 137.50292969 C-136.44402344 137.71949219 -137.08726562 137.93605469 -137.75 138.15917969 C-145.4693394 140.53774932 -154.97347064 142.89601407 -162.55078125 139.13964844 C-168.45000418 134.84837342 -170.20608156 128.29221596 -171.80078125 121.50292969 C-174.4586284 103.21648859 -174.4586284 103.21648859 -169.84375 96.76855469 C-167.24509056 95.02813147 -164.64410603 93.79535004 -161.80078125 92.50292969 C-160.25635722 91.24300482 -158.75219477 89.93146594 -157.30078125 88.56542969 C-154.01616587 85.50292969 -154.01616587 85.50292969 -151.80078125 85.50292969 C-152.37662557 87.88857046 -153.0230572 90.16975753 -153.80078125 92.50292969 C-153.24648437 91.99761719 -152.6921875 91.49230469 -152.12109375 90.97167969 C-151.03441406 89.99714844 -151.03441406 89.99714844 -149.92578125 89.00292969 C-149.20648438 88.35324219 -148.4871875 87.70355469 -147.74609375 87.03417969 C-145.80078125 85.50292969 -145.80078125 85.50292969 -143.80078125 85.50292969 C-143.47078125 86.49292969 -143.14078125 87.48292969 -142.80078125 88.50292969 C-142.17429687 88.14199219 -141.5478125 87.78105469 -140.90234375 87.40917969 C-139.67644531 86.71308594 -139.67644531 86.71308594 -138.42578125 86.00292969 C-137.20761719 85.30683594 -137.20761719 85.30683594 -135.96484375 84.59667969 C-133.80078125 83.50292969 -133.80078125 83.50292969 -131.80078125 83.50292969 C-133.11304617 87.74255482 -134.78271749 91.55526524 -136.80078125 95.50292969 C-135.70588379 95.25333496 -134.61098633 95.00374023 -133.48291016 94.74658203 C-123.50680624 92.49027307 -113.51296006 90.42282018 -103.45767212 88.55239868 C-101.09322773 88.11257338 -98.72954134 87.66883992 -96.3659668 87.22436523 C-88.55351873 85.75689247 -80.73816617 84.30523971 -72.921875 82.85839844 C-65.21024273 81.43039828 -57.50358885 79.97791175 -49.80078125 78.50292969 C-48.78725586 78.31102051 -47.77373047 78.11911133 -46.72949219 77.92138672 C-44.14491375 77.42538825 -41.56617281 76.90742085 -38.98828125 76.37792969 C-38.27712158 76.24362549 -37.56596191 76.10932129 -36.83325195 75.97094727 C-33.70791125 75.30058089 -32.04715689 74.77053609 -29.8515625 72.38574219 C-29.50480469 71.76441406 -29.15804687 71.14308594 -28.80078125 70.50292969 C-30.07308594 70.9940625 -30.07308594 70.9940625 -31.37109375 71.49511719 C-35.00268136 72.56225796 -37.90414426 72.70490187 -41.67578125 72.62792969 C-42.82820312 72.60988281 -43.980625 72.59183594 -45.16796875 72.57324219 C-46.03679687 72.55003906 -46.905625 72.52683594 -47.80078125 72.50292969 C-47.43707697 69.73877715 -46.97137445 68.66365386 -44.91015625 66.72167969 C-44.1315625 66.15449219 -43.35296875 65.58730469 -42.55078125 65.00292969 C-41.7825 64.43574219 -41.01421875 63.86855469 -40.22265625 63.28417969 C-38.58202147 62.07751927 -36.93870392 60.87449948 -35.29296875 59.67480469 C-32.41666817 57.16818538 -30.29625199 54.39241075 -28.17578125 51.25292969 C-27.78334229 50.67446289 -27.39090332 50.09599609 -26.98657227 49.5 C-22.29822813 42.42944349 -19.68308676 36.08159778 -20.80078125 27.50292969 C-21.60757819 24.41754259 -22.64927861 21.47416448 -23.80078125 18.50292969 C-24.13078125 17.51292969 -24.46078125 16.52292969 -24.80078125 15.50292969 C-24.18332031 15.17421875 -23.56585938 14.84550781 -22.9296875 14.50683594 C-16.92856861 11.1363445 -12.61619161 7.55063459 -8.19921875 2.26074219 C-5.43982936 0.2383884 -3.41475327 -0.19200053 0 0 Z " fill="#030303" transform="translate(186.80078125,148.4970703125)"/>
<path d="M0 0 C12.02093231 -0.83577488 24.08904123 4.97061894 33.36328125 12.22265625 C36.52855848 15.21487599 38.68982721 18.41147976 40.578125 22.31640625 C41.073125 23.30640625 41.073125 23.30640625 41.578125 24.31640625 C41.953125 27.25390625 41.953125 27.25390625 41.578125 30.31640625 C39.18919999 32.20239968 37.65960942 33.31640625 34.578125 33.31640625 C34.57850203 34.07471741 34.57887905 34.83302856 34.5792675 35.61431885 C34.58640788 54.12972615 34.56027719 72.64481883 34.4978466 91.16012573 C34.46844347 100.11429899 34.44999335 109.06823651 34.45800781 118.02246094 C34.46497081 125.83380794 34.45069054 133.64478954 34.41168892 141.45604706 C34.39178908 145.58599089 34.38199167 149.71536229 34.39770126 153.84533691 C34.41220165 157.74612113 34.39794009 161.6458207 34.36317253 165.54646683 C34.35531329 166.96522731 34.35727472 168.38408844 34.37073326 169.80280685 C34.49938556 184.6397824 30.14637637 199.4307339 19.578125 210.31640625 C13.3267781 215.106525 5.73701135 219.1588796 -2.3359375 219.03515625 C-6.26183298 217.68241324 -8.2407136 214.17573351 -10.5625 210.89453125 C-13.92635956 206.23035622 -16.40753735 204.00084154 -21.984375 202.44140625 C-30.04336139 199.9389826 -38.27338376 196.25288055 -44.421875 190.31640625 C-44.421875 189.65640625 -44.421875 188.99640625 -44.421875 188.31640625 C-38.24026896 188.85393721 -33.095017 190.86223013 -27.421875 193.31640625 C-27.751875 192.32640625 -28.081875 191.33640625 -28.421875 190.31640625 C-30.90533272 189.09095534 -30.90533272 189.09095534 -33.921875 188.06640625 C-39.85327079 185.72786311 -44.89309639 182.85594206 -49.421875 178.31640625 C-49.751875 177.32640625 -50.081875 176.33640625 -50.421875 175.31640625 C-43.421875 176.31640625 -36.421875 177.31640625 -29.421875 178.31640625 C-29.421875 177.65640625 -29.421875 176.99640625 -29.421875 176.31640625 C-30.906875 176.16171875 -30.906875 176.16171875 -32.421875 176.00390625 C-39.83983618 174.91214987 -45.62538212 172.02605672 -51.421875 167.31640625 C-51.421875 166.65640625 -51.421875 165.99640625 -51.421875 165.31640625 C-45.34520933 166.81426172 -39.54338493 168.60015809 -33.734375 170.94140625 C-28.85294132 172.8811645 -24.65466272 174.00859521 -19.421875 174.31640625 C-19.421875 174.97640625 -19.421875 175.63640625 -19.421875 176.31640625 C-15.131875 176.31640625 -10.841875 176.31640625 -6.421875 176.31640625 C-6.10333611 173.96292958 -5.79210485 171.60880348 -5.484375 169.25390625 C-5.35385742 168.29774414 -5.35385742 168.29774414 -5.22070312 167.32226562 C-3.39799766 153.21317519 -3.21897575 139.08012284 -3.234375 124.87890625 C-3.23464691 123.93174744 -3.23491882 122.98458862 -3.23519897 122.00872803 C0.00283796 72.11743243 0.00283796 72.11743243 -13.421875 27.31640625 C-15.27475002 27.24414123 -17.13021378 27.23259405 -18.984375 27.25390625 C-19.99628906 27.26292969 -21.00820312 27.27195312 -22.05078125 27.28125 C-22.83324219 27.29285156 -23.61570313 27.30445313 -24.421875 27.31640625 C-23.761875 25.33640625 -23.101875 23.35640625 -22.421875 21.31640625 C-29.37895676 23.39327882 -29.37895676 23.39327882 -35.421875 27.31640625 C-36.081875 27.31640625 -36.741875 27.31640625 -37.421875 27.31640625 C-35.546875 21.56640625 -35.546875 21.56640625 -34.421875 19.31640625 C-35.71796447 20.24778217 -37.00859132 21.18676285 -38.296875 22.12890625 C-39.01617187 22.65097656 -39.73546875 23.17304688 -40.4765625 23.7109375 C-42.65216155 25.34913402 -42.65216155 25.34913402 -44.421875 28.31640625 C-45.081875 28.31640625 -45.741875 28.31640625 -46.421875 28.31640625 C-45.99493215 23.47772058 -43.97399081 20.46235497 -40.421875 17.31640625 C-28.55191949 8.77561594 -14.55497311 1.90153681 0 0 Z " fill="#040404" transform="translate(228.421875,258.68359375)"/>
<path d="M0 0 C1.47175013 1.27397568 2.91123896 2.58637824 4.3125 3.9375 C5.04855469 4.535625 5.78460938 5.13375 6.54296875 5.75 C11.67270327 9.93601287 15.87112559 13.83489752 16.84375 20.671875 C16.8606278 22.01035079 16.84931749 23.34942423 16.8125 24.6875 C16.80041504 25.39124756 16.78833008 26.09499512 16.77587891 26.82006836 C16.54986241 32.79306786 15.36435517 37.73980916 12.3125 42.9375 C11.9 43.65035156 11.4875 44.36320312 11.0625 45.09765625 C9.00819026 48.03321818 7.5084406 49.66866046 3.94921875 50.46875 C-1.70733853 50.67475512 -5.63325812 49.27022702 -10.6875 46.9375 C-15.89838505 46.44590707 -20.03286138 47.81752419 -24.875 49.5 C-32.2830262 52.0723246 -32.2830262 52.0723246 -35.6875 50.9375 C-35.08421875 50.40640625 -34.4809375 49.8753125 -33.859375 49.328125 C-32.66054687 48.26851562 -32.66054687 48.26851562 -31.4375 47.1875 C-30.64859375 46.49140625 -29.8596875 45.7953125 -29.046875 45.078125 C-26.85738144 43.09163084 -24.75848715 41.04648692 -22.6875 38.9375 C-23.0175 37.9475 -23.3475 36.9575 -23.6875 35.9375 C-24.24179688 36.22625 -24.79609375 36.515 -25.3671875 36.8125 C-26.09164062 37.18375 -26.81609375 37.555 -27.5625 37.9375 C-28.28179687 38.30875 -29.00109375 38.68 -29.7421875 39.0625 C-31.6875 39.9375 -31.6875 39.9375 -33.6875 39.9375 C-33.6875 40.5975 -33.6875 41.2575 -33.6875 41.9375 C-41.11607143 45.22321429 -41.11607143 45.22321429 -44.6875 45.9375 C-41.19387577 42.22552425 -37.51159789 39.22759981 -33.359375 36.26953125 C-31.5553526 35.02393118 -31.5553526 35.02393118 -30.6875 32.9375 C-33.6575 32.9375 -36.6275 32.9375 -39.6875 32.9375 C-39.3575 31.9475 -39.0275 30.9575 -38.6875 29.9375 C-36.70026732 29.23368843 -34.69972047 28.5663189 -32.6875 27.9375 C-32.3575 27.2775 -32.0275 26.6175 -31.6875 25.9375 C-33.6675 25.9375 -35.6475 25.9375 -37.6875 25.9375 C-37.6875 25.2775 -37.6875 24.6175 -37.6875 23.9375 C-36.3675 23.6075 -35.0475 23.2775 -33.6875 22.9375 C-39.56627262 19.41023643 -46.03645518 18.32889068 -52.6875 16.9375 C-52.6875 15.2875 -52.6875 13.6375 -52.6875 11.9375 C-50.7075 11.6075 -48.7275 11.2775 -46.6875 10.9375 C-46.6875 8.6275 -46.6875 6.3175 -46.6875 3.9375 C-48.0075 3.6075 -49.3275 3.2775 -50.6875 2.9375 C-50.6875 1.9475 -50.6875 0.9575 -50.6875 -0.0625 C-8.39042977 -5.64862519 -8.39042977 -5.64862519 0 0 Z " fill="#060606" transform="translate(118.6875,177.0625)"/>
<path d="M0 0 C0 0.66 0 1.32 0 2 C0.66 2.185625 1.32 2.37125 2 2.5625 C8.89776553 5.86767932 13.38351675 10.61019388 16.40625 17.59375 C17.9978728 24.04401082 16.59533761 29.16017502 14.25 35.125 C13.99734375 35.81464844 13.7446875 36.50429687 13.484375 37.21484375 C11.888289 41.38860864 10.14212283 44.72900104 7 48 C3.75 49.1875 3.75 49.1875 0 49 C-2.14082314 47.57137984 -3.96136033 46.03730726 -5.8125 44.25 C-9.1729444 42.32974606 -11.30104145 43.09555245 -15 44 C-17.68278092 45.06228652 -20.24262547 46.31577039 -22.8125 47.625 C-25.19119886 48.82928812 -27.54950953 49.93920727 -30 51 C-30.66 50.67 -31.32 50.34 -32 50 C-30.71451591 48.66070495 -29.42141845 47.32871357 -28.125 46 C-27.40570313 45.2575 -26.68640625 44.515 -25.9453125 43.75 C-24 42 -24 42 -22 42 C-20.79371992 39.66785852 -19.8345262 37.50357861 -19 35 C-22.58044057 34.52477789 -23.79854466 34.85525688 -26.7890625 37.00390625 C-28.19285156 38.27041016 -28.19285156 38.27041016 -29.625 39.5625 C-32.4765625 42.12890625 -32.4765625 42.12890625 -35 44 C-35.99 43.67 -36.98 43.34 -38 43 C-37.28972656 42.30132812 -36.57945312 41.60265625 -35.84765625 40.8828125 C-34.46900391 39.51769531 -34.46900391 39.51769531 -33.0625 38.125 C-31.68771484 36.76761719 -31.68771484 36.76761719 -30.28515625 35.3828125 C-27.98812373 33.22317745 -27.98812373 33.22317745 -27 31 C-28.98 31 -30.96 31 -33 31 C-33 30.01 -33 29.02 -33 28 C-31.68 28 -30.36 28 -29 28 C-29 27.34 -29 26.68 -29 26 C-30.98 26 -32.96 26 -35 26 C-35 25.34 -35 24.68 -35 24 C-34.01 24 -33.02 24 -32 24 C-32 23.01 -32 22.02 -32 21 C-32.9075 21.04125 -33.815 21.0825 -34.75 21.125 C-40.24461844 21.14765822 -45.61479886 19.99038182 -51 19 C-49.7367158 15.64405806 -48.74084921 13.36709704 -46 11 C-46.495 9.8553125 -46.495 9.8553125 -47 8.6875 C-48 6 -48 6 -48 3 C-14.10085965 -6.47252574 -14.10085965 -6.47252574 0 0 Z " fill="#070707" transform="translate(410,202)"/>
<path d="M0 0 C2.513526 8.64024562 2.18417244 17.08810018 2 26 C-1.72793942 26.67365384 -5.45752995 27.33768978 -9.1875 28 C-10.24259766 28.19078125 -11.29769531 28.3815625 -12.38476562 28.578125 C-13.91713867 28.84882813 -13.91713867 28.84882813 -15.48046875 29.125 C-16.41785889 29.29257812 -17.35524902 29.46015625 -18.32104492 29.6328125 C-20.91967719 29.98899066 -23.38106212 30.06645996 -26 30 C-25.42754306 21.65674459 -24.79850617 13.32485153 -24 5 C-15.76061087 1.06340297 -9.09787841 -0.18195757 0 0 Z " fill="#EFEFEF" transform="translate(521,260)"/>
<path d="M0 0 C0 7.26 0 14.52 0 22 C-7 22 -7 22 -9.375 21.5 C-16.34730728 20.17194147 -22.91623934 21.18619098 -29.8125 22.375 C-30.5540332 22.50100586 -31.29556641 22.62701172 -32.05957031 22.75683594 C-34.94292779 23.28263237 -37.56627935 23.78275449 -40.19921875 25.1015625 C-42 26 -42 26 -47 26 C-47 22.7 -47 19.4 -47 16 C-45.21335937 15.42958984 -45.21335937 15.42958984 -43.390625 14.84765625 C-36.7466074 12.63255015 -30.25862264 10.01748696 -23.75 7.4375 C-22.48445982 6.93793612 -21.21883532 6.43858579 -19.953125 5.93945312 C-13.6467678 3.48557694 -13.6467678 3.48557694 -7.41894531 0.84399414 C-5 0 -5 0 0 0 Z " fill="#F3F3F3" transform="translate(128,353)"/>
<path d="M0 0 C2.3479743 7.33741969 2.19355213 14.34393782 2 22 C0.39566191 21.52140759 -1.20846416 21.04210442 -2.8125 20.5625 C-3.70582031 20.29566406 -4.59914062 20.02882813 -5.51953125 19.75390625 C-7.35473055 19.19612127 -9.18033726 18.60655425 -11 18 C-13.62487607 18.03721198 -16.19687947 18.13939003 -18.8125 18.3125 C-19.51181641 18.34794922 -20.21113281 18.38339844 -20.93164062 18.41992188 C-25.27257984 18.69199197 -28.87664769 19.52609548 -33 21 C-36.375 21.125 -36.375 21.125 -39 21 C-38.57884364 16.22689462 -36.5422708 13.09232878 -33 10 C-23.53615928 3.90225533 -11.28532711 0 0 0 Z " fill="#F2F2F2" transform="translate(125,310)"/>
<path d="M0 0 C3.64581598 -0.0293908 7.29160087 -0.04692874 10.9375 -0.0625 C11.95908203 -0.07087891 12.98066406 -0.07925781 14.03320312 -0.08789062 C20.1121997 -0.10731234 25.9726232 0.20179682 32 1 C32 1.99 32 2.98 32 4 C34.31 4 36.62 4 39 4 C39 4.33 39 4.66 39 5 C8.87347956 7.38776806 8.87347956 7.38776806 -5 7 C-5 6.67 -5 6.34 -5 6 C0.94 5.505 0.94 5.505 7 5 C4.69 4.67 2.38 4.34 0 4 C0 2.68 0 1.36 0 0 Z " fill="#D3D3D3" transform="translate(575,315)"/>
<path d="M0 0 C0.66 0 1.32 0 2 0 C3.19388403 30.12652044 3.19388403 30.12652044 3 44 C2.34 44 1.68 44 1 44 C0.67 41.36 0.34 38.72 0 36 C-0.66 37.32 -1.32 38.64 -2 40 C-2.33 40 -2.66 40 -3 40 C-3.22596061 30.97412904 -2.5383177 22.2113365 -1.5 13.25 C-1.35691406 11.96867187 -1.21382812 10.68734375 -1.06640625 9.3671875 C-0.71680465 6.24407989 -0.36123993 3.12177907 0 0 Z " fill="#DDDDDD" transform="translate(250,379)"/>
<path d="M0 0 C0.66 0 1.32 0 2 0 C0.7874262 3.72433382 -0.50859979 7.37802806 -2 11 C-1.05125 10.484375 -0.1025 9.96875 0.875 9.4375 C1.90625 8.963125 2.9375 8.48875 4 8 C4.66 8.33 5.32 8.66 6 9 C4.81176758 11.00830078 4.81176758 11.00830078 3 13 C0.6940918 13.23779297 0.6940918 13.23779297 -1.98828125 12.8671875 C-2.96748535 12.73924805 -3.94668945 12.61130859 -4.95556641 12.47949219 C-5.96022949 12.32125977 -6.96489258 12.16302734 -8 12 C-8.93376465 11.85981445 -9.8675293 11.71962891 -10.82958984 11.57519531 C-13.62363768 11.12991698 -16.40463062 10.63522518 -19.1875 10.125 C-20.12013672 9.96386719 -21.05277344 9.80273438 -22.01367188 9.63671875 C-27.64200676 8.61626169 -32.70826078 7.17639098 -38 5 C-36 4 -36 4 -33.890625 4.59375 C-33.01921875 4.8928125 -32.1478125 5.191875 -31.25 5.5 C-22.34688785 8.02040921 -13.53915102 7.60423993 -5.1875 3.5 C-2.41510573 1.98660913 -2.41510573 1.98660913 0 0 Z " fill="#C5C5C5" transform="translate(442,401)"/>
<path d="M0 0 C0.99 0.495 0.99 0.495 2 1 C4.41540785 9.53932067 4.24910034 18.45796821 4.125 27.25 C4.11597656 28.48363281 4.10695313 29.71726562 4.09765625 30.98828125 C4.07436851 33.99240024 4.04166756 36.99608943 4 40 C3.01 40 2.02 40 1 40 C0.20468835 26.65012592 -0.12803877 13.37293838 0 0 Z " fill="#F0F0F0" transform="translate(541,342)"/>
<path d="M0 0 C0.66 0 1.32 0 2 0 C4.38776806 25.9701529 4.38776806 25.9701529 4 37 C3.34 37 2.68 37 2 37 C2 31.06 2 25.12 2 19 C1.34 19 0.68 19 0 19 C0.05220703 20.13888672 0.05220703 20.13888672 0.10546875 21.30078125 C0.13253906 22.29464844 0.15960938 23.28851563 0.1875 24.3125 C0.23970703 25.79169922 0.23970703 25.79169922 0.29296875 27.30078125 C0 30 0 30 -1.51171875 31.85546875 C-2.00285156 32.23316406 -2.49398437 32.61085938 -3 33 C-2.5166022 21.89457165 -1.67027792 10.99464496 0 0 Z " fill="#D9D9D9" transform="translate(150,384)"/>
<path d="M0 0 C4.42911406 -0.02486762 8.85819025 -0.04293889 13.28735352 -0.05493164 C14.7915925 -0.05993555 16.29582668 -0.06674073 17.80004883 -0.07543945 C19.97218009 -0.08767884 22.14424659 -0.09326786 24.31640625 -0.09765625 C25.62037354 -0.10289307 26.92434082 -0.10812988 28.26782227 -0.11352539 C31.95201033 -0.00145975 35.36971466 0.40625214 39 1 C39 1.33 39 1.66 39 2 C8.87347956 4.38776806 8.87347956 4.38776806 -5 4 C-5 3.67 -5 3.34 -5 3 C0.94 2.505 0.94 2.505 7 2 C4.69 1.67 2.38 1.34 0 1 C0 0.67 0 0.34 0 0 Z " fill="#797979" transform="translate(575,318)"/>
<path d="M0 0 C0.66 0 1.32 0 2 0 C3.06996173 9.01824887 3.10234659 17.93664124 3 27 C2.01 27 1.02 27 0 27 C0 18.09 0 9.18 0 0 Z " fill="#EAEAEA" transform="translate(184,366)"/>
<path d="M0 0 C0.66 0.33 1.32 0.66 2 1 C4.10889584 8.1428038 4.27753196 15.53004852 4.1953125 22.91796875 C4.1924826 23.90122635 4.18965271 24.88448395 4.18673706 25.89753723 C4.17566891 28.99432286 4.15059053 32.0908039 4.125 35.1875 C4.11495289 37.30533432 4.10583009 39.42317324 4.09765625 41.54101562 C4.07577359 46.69412523 4.04133839 51.84701124 4 57 C1.03 57.495 1.03 57.495 -2 58 C-2.495 56.515 -2.495 56.515 -3 55 C-1.02 55.33 0.96 55.66 3 56 C2.90535968 50.27464542 2.79904397 44.54966009 2.68261719 38.82470703 C2.64469646 36.88335868 2.60978463 34.94194883 2.578125 33.00048828 C2.39398255 21.84260672 1.99434051 11.00754101 0 0 Z " fill="#353535" transform="translate(169,330)"/>
<path d="M0 0 C0 0.66 0 1.32 0 2 C-3.63 2.66 -7.26 3.32 -11 4 C-11 3.34 -11 2.68 -11 2 C-12.34578125 2.10828125 -12.34578125 2.10828125 -13.71875 2.21875 C-23.16615923 2.92144986 -32.52880309 3.11201153 -42 3 C-42 2.67 -42 2.34 -42 2 C-37.9476316 1.70977323 -33.89490428 1.42522931 -29.84179688 1.14550781 C-28.46864574 1.04998983 -27.09559388 0.95303155 -25.72265625 0.85449219 C-17.13278975 0.23913625 -8.61246882 -0.14618052 0 0 Z " fill="#474747" transform="translate(674,408)"/>
<path d="M0 0 C0.33 0 0.66 0 1 0 C2.19388403 30.12652044 2.19388403 30.12652044 2 44 C1.34 44 0.68 44 0 44 C-0.93878514 33.95822946 -0.99272986 24.20325819 -0.5625 14.125 C-0.50906618 12.74351646 -0.45632879 11.3620058 -0.40429688 9.98046875 C-0.27632944 6.65331553 -0.14146879 3.32660174 0 0 Z " fill="#919191" transform="translate(251,379)"/>
<path d="M0 0 C0.66 0 1.32 0 2 0 C2 2.97 2 5.94 2 9 C2.66 9.33 3.32 9.66 4 10 C3.67 10.33 3.34 10.66 3 11 C1.30858344 10.91036938 -0.37959602 10.75422324 -2.0625 10.5625 C-2.98160156 10.46066406 -3.90070313 10.35882813 -4.84765625 10.25390625 C-5.55792969 10.17011719 -6.26820313 10.08632813 -7 10 C-5.15014033 6.06048404 -2.92434659 3.21678125 0 0 Z " fill="#EEEEEE" transform="translate(452,404)"/>
<path d="M0 0 C0.99 0.495 0.99 0.495 2 1 C2.47597366 3.70599842 2.84093629 6.33595404 3.125 9.0625 C3.21136719 9.82111328 3.29773438 10.57972656 3.38671875 11.36132812 C3.59939517 13.23996986 3.80075459 15.11988636 4 17 C3.34 16.01 2.68 15.02 2 14 C1.67 15.98 1.34 17.96 1 20 C0.67 20 0.34 20 0 20 C0 13.4 0 6.8 0 0 Z " fill="#C8C8C8" transform="translate(541,342)"/>
<path d="M0 0 C-0.5625 1.875 -0.5625 1.875 -2 4 C-5.625 5.25 -5.625 5.25 -9 6 C-8.67 5.34 -8.34 4.68 -8 4 C-11.63 3.67 -15.26 3.34 -19 3 C-19 2.67 -19 2.34 -19 2 C-18.08476562 1.93941406 -17.16953125 1.87882813 -16.2265625 1.81640625 C-14.44378906 1.69072266 -14.44378906 1.69072266 -12.625 1.5625 C-11.44164062 1.48128906 -10.25828125 1.40007812 -9.0390625 1.31640625 C-5.50477507 0.94844059 -3.68877522 0 0 0 Z " fill="#BBBBBB" transform="translate(158,219)"/>
<path d="M0 0 C0.33 0 0.66 0 1 0 C1.08701039 3.60401481 1.14039388 7.20776012 1.1875 10.8125 C1.22520508 12.34874023 1.22520508 12.34874023 1.26367188 13.91601562 C1.27333984 14.89892578 1.28300781 15.88183594 1.29296875 16.89453125 C1.3086792 17.80050049 1.32438965 18.70646973 1.34057617 19.63989258 C0.93875073 22.42444206 0.16311438 23.27599535 -2 25 C-1.85803484 22.14559413 -1.71154174 19.29153804 -1.5625 16.4375 C-1.52318359 15.63763672 -1.48386719 14.83777344 -1.44335938 14.01367188 C-1.19251844 9.28628494 -0.74678186 4.67523099 0 0 Z " fill="#C1C1C1" transform="translate(149,392)"/>
<path d="M0 0 C0.33 0 0.66 0 1 0 C1 3.3 1 6.6 1 10 C-0.32 10.33 -1.64 10.66 -3 11 C-2.88590407 9.54077307 -2.75834456 8.08259402 -2.625 6.625 C-2.55539062 5.81289063 -2.48578125 5.00078125 -2.4140625 4.1640625 C-2 2 -2 2 0 0 Z " fill="#E5E5E5" transform="translate(398,325)"/>
<path d="M0 0 C0.66 0.33 1.32 0.66 2 1 C1.36191406 1.60328125 0.72382813 2.2065625 0.06640625 2.828125 C-0.75988281 3.62734375 -1.58617187 4.4265625 -2.4375 5.25 C-3.26121094 6.03890625 -4.08492187 6.8278125 -4.93359375 7.640625 C-6.91885207 9.90734717 -7.6300359 11.0671937 -8 14 C-8.66 14 -9.32 14 -10 14 C-9.56483807 9.06816484 -7.31967925 6.55128477 -4 3 C-1.6875 1.125 -1.6875 1.125 0 0 Z " fill="#3D3D3D" transform="translate(192,273)"/>
<path d="M0 0 C0.66 0 1.32 0 2 0 C2 5.94 2 11.88 2 18 C1.67 18 1.34 18 1 18 C1 16.35 1 14.7 1 13 C0.34 13 -0.32 13 -1 13 C-0.67 8.71 -0.34 4.42 0 0 Z " fill="#232323" transform="translate(150,403)"/>
<path d="M0 0 C0 3.63327194 -0.95586411 5.04735927 -3 8 C-3.99 8.66 -4.98 9.32 -6 10 C-7.32 9.67 -8.64 9.34 -10 9 C-6.7 6.03 -3.4 3.06 0 0 Z " fill="#CECECE" transform="translate(435,301)"/>
<path d="M0 0 C0.66 0.33 1.32 0.66 2 1 C1.01 2.485 1.01 2.485 0 4 C0 4.66 0 5.32 0 6 C-7.42857143 9.28571429 -7.42857143 9.28571429 -11 10 C-7.50640535 6.40365256 -3.88901869 3.16548033 0 0 Z " fill="#454545" transform="translate(85,213)"/>
<path d="M0 0 C2.31 0.66 4.62 1.32 7 2 C7.33 3.32 7.66 4.64 8 6 C4.7 5.01 1.4 4.02 -2 3 C-1.34 2.67 -0.68 2.34 0 2 C0 1.34 0 0.68 0 0 Z " fill="#D0D0D0" transform="translate(193,446)"/>
<path d="M0 0 C0.33 0 0.66 0 1 0 C1 6.93 1 13.86 1 21 C0.01 21.33 -0.98 21.66 -2 22 C-1.34 14.74 -0.68 7.48 0 0 Z " fill="#E3E3E3" transform="translate(549,365)"/>
<path d="M0 0 C0.66 0 1.32 0 2 0 C2 1.98 2 3.96 2 6 C0.02 6.33 -1.96 6.66 -4 7 C-2.92598892 4.08482708 -2.22189824 2.22189824 0 0 Z " fill="#CFCFCF" transform="translate(383,386)"/>
<path d="M0 0 C0.66 0 1.32 0 2 0 C0.69063102 2.92090003 -0.75619462 4.75619462 -3 7 C-3.33 7.99 -3.66 8.98 -4 10 C-2.68 10.33 -1.36 10.66 0 11 C-1.98 11 -3.96 11 -6 11 C-5.55491959 5.95575532 -3.39019075 3.55556591 0 0 Z " fill="#C3C3C3" transform="translate(92,320)"/>
<path d="M0 0 C2 2 2 2 2.1953125 3.9453125 C2.13020833 5.96354167 2.06510417 7.98177083 2 10 C1.01 9.67 0.02 9.34 -1 9 C-1.73046875 7.15234375 -1.73046875 7.15234375 -2.1875 4.9375 C-2.34605469 4.20402344 -2.50460937 3.47054687 -2.66796875 2.71484375 C-2.77753906 2.14894531 -2.88710938 1.58304688 -3 1 C-2.01 0.67 -1.02 0.34 0 0 Z " fill="#B0B0B0" transform="translate(518,180)"/>
<path d="M0 0 C0 0.66 0 1.32 0 2 C0.99 2.33 1.98 2.66 3 3 C2.67 3.99 2.34 4.98 2 6 C2 5.34 2 4.68 2 4 C-0.97 4 -3.94 4 -7 4 C-6.67 3.01 -6.34 2.02 -6 1 C-3.90006779 0.25486277 -2.22568901 0 0 0 Z " fill="#5F5F5F" transform="translate(86,206)"/>
<path d="M0 0 C5.94 1.485 5.94 1.485 12 3 C12 3.66 12 4.32 12 5 C9.36 5 6.72 5 4 5 C4 4.34 4 3.68 4 3 C2.68 2.34 1.36 1.68 0 1 C0 0.67 0 0.34 0 0 Z " fill="#A8A8A8" transform="translate(187,432)"/>
<path d="M0 0 C1.65 0.33 3.3 0.66 5 1 C4.01 2.98 3.02 4.96 2 7 C1.34 7 0.68 7 0 7 C-1.125 2.25 -1.125 2.25 0 0 Z " fill="#777777" transform="translate(391,393)"/>
<path d="M0 0 C0.66 0.99 1.32 1.98 2 3 C-0.3125 5.0625 -0.3125 5.0625 -3 7 C-3.99 6.67 -4.98 6.34 -6 6 C-4.02 4.02 -2.04 2.04 0 0 Z " fill="#434343" transform="translate(378,239)"/>
<path d="M0 0 C0.33 0 0.66 0 1 0 C2.125 7.75 2.125 7.75 1 10 C1.66 10.33 2.32 10.66 3 11 C2.01 11 1.02 11 0 11 C0 10.34 0 9.68 0 9 C-0.66 8.67 -1.32 8.34 -2 8 C-1.34 5.36 -0.68 2.72 0 0 Z " fill="#414141" transform="translate(378,383)"/>
<path d="M0 0 C-0.33 1.32 -0.66 2.64 -1 4 C-2.32 4.33 -3.64 4.66 -5 5 C-5 3.68 -5 2.36 -5 1 C-2 0 -2 0 0 0 Z " fill="#C8C8C8" transform="translate(458,337)"/>
<path d="M0 0 C2.31 0 4.62 0 7 0 C6.67 0.99 6.34 1.98 6 3 C4.02 3 2.04 3 0 3 C0 2.01 0 1.02 0 0 Z " fill="#424242" transform="translate(100,435)"/>
<path d="M0 0 C0.99 0.33 1.98 0.66 3 1 C2.67 2.65 2.34 4.3 2 6 C1.01 6 0.02 6 -1 6 C-1.625 4.125 -1.625 4.125 -2 2 C-1.34 1.34 -0.68 0.68 0 0 Z " fill="#9A9A9A" transform="translate(400,389)"/>
</svg>
